<svg version="1.1" id="Layer_1" xmlns="http://www.w3.org/2000/svg" xmlns:xlink="http://www.w3.org/1999/xlink" x="0px" y="0px"
	 width="100%" viewBox="0 0 400 352" enable-background="new 0 0 400 352" xml:space="preserve">
<path fill="#000000" opacity="1.000000" stroke="none" 
	d="
M193.295547,299.613800 
	C185.251022,287.019867 181.565109,273.413574 179.616669,259.079010 
	C177.171463,241.089767 178.552887,223.192795 179.789124,205.258408 
	C179.812057,204.925995 179.817902,204.591965 179.852493,204.260864 
	C180.816589,195.030243 180.775696,195.123322 172.452942,191.424728 
	C155.600281,183.935501 138.574142,175.647751 126.740799,161.605865 
	C112.130432,144.268631 97.466217,126.416634 91.452881,103.418045 
	C87.717018,89.129883 86.136742,74.949509 89.751633,60.604031 
	C94.659813,41.126160 106.198586,27.326321 125.976486,21.702768 
	C133.209427,19.646193 140.732162,19.737663 148.101166,22.028435 
	C151.228104,23.000498 154.445602,23.323191 157.788315,23.557203 
	C165.051117,24.065649 171.631500,27.352074 176.624390,32.691071 
	C179.971710,36.270416 177.946701,40.414520 175.270569,43.540745 
	C172.966293,46.232548 169.950562,48.140976 166.018478,45.956234 
	C160.634552,42.964817 155.196289,40.184467 151.175461,35.204578 
	C148.880005,32.361599 145.106613,31.869614 141.689148,31.424427 
	C116.966644,28.203884 101.225067,49.673786 99.186020,67.851372 
	C95.882111,97.304779 107.177071,121.424202 125.851952,143.001862 
	C127.507469,144.914703 129.110199,146.735886 132.050552,146.549118 
	C133.635590,146.448441 134.732239,147.735214 135.825043,148.769745 
	C150.556580,162.715988 167.712524,172.681107 186.611542,179.827515 
	C188.621460,180.587540 190.362076,180.638565 192.376389,179.906143 
	C211.226990,173.052017 227.741989,162.562271 243.155136,149.702347 
	C249.226730,144.636520 255.709198,140.285904 260.398621,133.756577 
	C273.804016,115.091560 281.585175,94.805405 280.102325,71.329987 
	C278.942383,52.967033 267.625519,36.768780 250.467041,32.264889 
	C241.399155,29.884668 232.026932,29.640141 224.791656,38.033447 
	C221.741913,41.571312 217.268127,43.436268 213.171646,45.685837 
	C208.638397,48.175270 205.476639,46.311428 202.869736,42.795300 
	C199.721771,38.549389 199.501541,34.344631 203.082947,31.641125 
	C208.871658,27.271404 214.935898,23.130758 222.901276,23.641287 
	C227.928818,23.963524 232.442139,21.237600 237.449677,20.658501 
	C258.220886,18.256390 276.321808,31.700006 284.050293,47.059872 
	C294.481232,67.790627 292.914917,88.925095 285.274445,109.994331 
	C279.705566,125.350990 271.212830,139.016281 259.947144,150.907211 
	C259.376282,151.509735 258.507690,152.110947 258.387054,152.816895 
	C256.751953,162.385956 248.306931,165.958206 241.930740,171.111298 
	C229.532837,181.130997 215.351425,188.199112 200.610275,194.112808 
	C197.862381,195.215195 196.619781,196.628967 196.059052,199.764572 
	C193.108429,216.264236 192.280640,232.931992 193.535553,249.517334 
	C194.556763,263.014069 197.150375,276.385376 204.005768,288.598846 
	C217.685532,312.970459 249.092346,315.932983 266.640808,294.220215 
	C274.144836,284.935486 278.136353,274.074127 280.492767,262.509918 
	C281.041382,259.817688 280.161133,258.355652 277.625397,257.012756 
	C263.610748,249.590927 256.024353,234.633255 259.106842,221.054474 
	C262.564056,205.825012 274.783081,195.435226 290.645416,194.237335 
	C304.790558,193.169113 319.479980,204.874191 323.588226,218.400192 
	C328.969574,236.117783 316.601990,255.543381 299.716309,259.361603 
	C296.681427,260.047882 295.735809,261.791565 295.138641,264.883331 
	C291.101440,285.785095 282.763428,304.165131 264.021271,316.269684 
	C239.311905,332.228210 208.560669,322.527222 193.295547,299.613800 
M295.723602,248.550858 
	C297.433929,247.910553 299.175293,247.342041 300.849304,246.617798 
	C309.192963,243.008041 313.451050,235.086578 312.790100,224.498428 
	C312.300079,216.649063 305.567047,208.774933 297.482574,206.596649 
	C289.284515,204.387772 279.473846,207.727707 274.774628,214.521713 
	C269.699219,221.859589 268.895142,229.656342 273.206787,237.599396 
	C277.859863,246.171417 285.433228,249.340790 295.723602,248.550858 
z"/>
<path fill="#000000" opacity="1.000000" stroke="none" 
	d="
M192.598953,96.842392 
	C209.738342,100.553093 223.144394,116.363884 222.987350,132.174896 
	C222.866241,144.370117 212.612320,152.305313 201.296082,147.718109 
	C193.199524,144.436035 186.542725,143.967056 178.125687,147.348404 
	C164.669281,152.754211 153.835831,142.669266 156.297897,128.321487 
	C158.963821,112.785843 168.259048,102.823280 182.746490,97.381828 
	C185.781891,96.241730 189.012787,96.937561 192.598953,96.842392 
z"/>
<path fill="#000000" opacity="1.000000" stroke="none" 
	d="
M215.750336,84.345734 
	C211.356354,92.307175 206.151733,95.038261 200.523468,92.604439 
	C194.458115,89.981598 191.005676,81.427902 193.060760,74.350052 
	C193.900345,71.458466 194.733154,68.620956 196.915771,66.381699 
	C199.847366,63.374001 203.065765,61.458633 207.548889,62.464649 
	C212.165512,63.500618 214.681808,66.592438 216.011154,70.752617 
	C217.406631,75.119682 217.406876,79.586945 215.750336,84.345734 
z"/>
<path fill="#000000" opacity="1.000000" stroke="none" 
	d="
M165.841888,89.127090 
	C161.403656,83.211533 160.495056,77.063393 162.784698,70.467346 
	C164.242874,66.266640 167.044159,63.291393 171.489548,62.419147 
	C175.778473,61.577599 179.332916,63.194996 181.994095,66.622543 
	C186.712891,72.700310 187.430557,79.496284 184.370529,86.327408 
	C180.590317,94.766273 171.100677,95.671143 165.841888,89.127090 
z"/>
<path fill="#000000" opacity="1.000000" stroke="none" 
	d="
M162.251938,98.183701 
	C162.420822,100.991257 161.958069,103.241707 160.910080,105.384460 
	C156.674957,114.043808 148.176849,114.925148 142.221924,107.316177 
	C137.683807,101.517570 136.674896,94.528969 140.476166,88.753143 
	C145.131348,81.679855 152.058441,80.612846 158.767776,89.051117 
	C160.703201,91.485291 161.990158,94.492004 162.251938,98.183701 
z"/>
<path fill="#000000" opacity="1.000000" stroke="none" 
	d="
M237.890808,105.611328 
	C235.503387,108.944160 233.118866,111.669945 229.115723,112.205330 
	C220.564621,113.348976 214.140076,103.899681 217.284653,94.518700 
	C218.276260,91.560555 219.662613,88.688614 222.148270,86.513649 
	C228.738037,80.747551 237.190964,83.248215 239.510925,91.737785 
	C240.789337,96.416016 240.369095,100.955048 237.890808,105.611328 
z"/>
<path fill="#000000" opacity="1.000000" stroke="none" 
	d="
M302.822021,236.723129 
	C298.084625,241.370911 293.011200,243.583389 286.812439,240.939804 
	C280.983093,238.453751 277.278412,234.070145 277.194611,227.658295 
	C277.111633,221.309647 280.432709,216.649078 286.230377,213.937149 
	C291.498657,211.472855 298.390717,213.113831 302.566040,217.724808 
	C307.345673,223.003174 307.511749,229.294815 302.822021,236.723129 
z"/>
</svg>